<svg id="_02-twitter-bird" data-name="02-twitter-bird" xmlns="http://www.w3.org/2000/svg" width="24.063" height="19.551" viewBox="0 0 24.063 19.551">
  <g id="Group_18" data-name="Group 18" transform="translate(0 0)">
    <path id="Path_4" data-name="Path 4" d="M24.063,50.315a10.285,10.285,0,0,1-2.842.779,4.905,4.905,0,0,0,2.17-2.727,9.859,9.859,0,0,1-3.128,1.194,4.933,4.933,0,0,0-8.533,3.373,5.08,5.08,0,0,0,.114,1.125A13.963,13.963,0,0,1,1.675,48.9a4.934,4.934,0,0,0,1.516,6.593,4.872,4.872,0,0,1-2.229-.608v.054a4.956,4.956,0,0,0,3.952,4.847,4.923,4.923,0,0,1-1.293.162,4.362,4.362,0,0,1-.934-.084A4.98,4.98,0,0,0,7.3,63.3a9.912,9.912,0,0,1-6.116,2.1A9.238,9.238,0,0,1,0,65.337a13.888,13.888,0,0,0,7.568,2.214A13.944,13.944,0,0,0,21.608,53.513c0-.218-.008-.429-.018-.638A9.841,9.841,0,0,0,24.063,50.315Z" transform="translate(0 -48)" fill="#fff"/>
  </g>
</svg>
