<svg id="_039-github" data-name="039-github" xmlns="http://www.w3.org/2000/svg" width="24.534" height="24.023" viewBox="0 0 24.534 24.023">
  <g id="Group_17" data-name="Group 17" transform="translate(0 0)">
    <path id="Path_3" data-name="Path 3" d="M12.265,5.329a12.323,12.323,0,0,0-3.875,24c.613.113.837-.267.837-.593,0-.293-.011-1.067-.017-2.095-3.412.744-4.132-1.651-4.132-1.651a3.252,3.252,0,0,0-1.362-1.8c-1.115-.764.083-.748.083-.748a2.576,2.576,0,0,1,1.878,1.27,2.607,2.607,0,0,0,3.571,1.023,2.629,2.629,0,0,1,.779-1.647C7.3,22.775,4.441,21.719,4.441,17A4.774,4.774,0,0,1,5.7,13.695a4.438,4.438,0,0,1,.12-3.258S6.854,10.105,9.2,11.7a11.579,11.579,0,0,1,6.143,0c2.341-1.593,3.37-1.262,3.37-1.262a4.444,4.444,0,0,1,.123,3.258A4.764,4.764,0,0,1,20.093,17c0,4.73-2.867,5.772-5.6,6.077a2.946,2.946,0,0,1,.833,2.28c0,1.647-.015,2.975-.015,3.378,0,.33.221.713.843.592a12.324,12.324,0,0,0-3.889-24Z" transform="translate(0 -5.329)" fill="#fff"/>
  </g>
</svg>
