<svg xmlns="http://www.w3.org/2000/svg" width="189.173" height="189.04" viewBox="0 0 189.173 189.04">
  <g id="circle" transform="translate(-1.027 -1.044)">
    <text id="I" transform="translate(13.131 69.397) rotate(-70.6)" fill="#fff" font-size="10" font-family="MyriadPro-Regular, Myriad Pro"><tspan x="0" y="0">I</tspan></text>
    <text id="N" transform="matrix(0.451, -0.892, 0.892, 0.451, 18.493, 65.311)" fill="#fff" font-size="16" font-family="MyriadPro-Regular, Myriad Pro"><tspan x="0" y="0">N</tspan></text>
    <text id="G" transform="matrix(0.604, -0.797, 0.797, 0.604, 24.584, 51.086)" fill="#fff" font-size="14" font-family="MyriadPro-Regular, Myriad Pro"><tspan x="0" y="0">G</tspan></text>
    <text id="L" transform="matrix(0.722, -0.692, 0.692, 0.722, 33.16, 38.432)" fill="#fff" font-size="13" font-family="MyriadPro-Regular, Myriad Pro"><tspan x="0" y="0">L</tspan></text>
    <text id="E" transform="translate(41.253 30.646) rotate(-36.19)" fill="#fff" font-size="13" font-family="MyriadPro-Regular, Myriad Pro"><tspan x="0" y="0">E</tspan></text>
    <text id="T" transform="translate(51.024 23.571) rotate(-27.99)" fill="#fff" font-size="13" font-family="MyriadPro-Regular, Myriad Pro"><tspan x="0" y="0">T</tspan></text>
    <text id="E-2" data-name="E" transform="translate(61.487 18.057) rotate(-19.98)" fill="#fff" font-size="13" font-family="MyriadPro-Regular, Myriad Pro"><tspan x="0" y="0">E</tspan></text>
    <text id="C" transform="translate(72.517 14.005) rotate(-11.29)" fill="#fff" font-size="13" font-family="MyriadPro-Regular, Myriad Pro"><tspan x="0" y="0">C</tspan></text>
    <text id="H" transform="matrix(1, -0.024, 0.024, 1, 86.108, 12.285)" fill="#fff" font-size="14" font-family="MyriadPro-Regular, Myriad Pro"><tspan x="0" y="0">H</tspan></text>
    <text id="E-3" data-name="E" transform="matrix(0.912, 0.411, -0.411, 0.912, 125.122, 16.166)" fill="#fff" font-size="13" font-family="MyriadPro-Regular, Myriad Pro"><tspan x="0" y="0">E</tspan></text>
    <text id="W" transform="translate(105.432 13.08) rotate(13.4)" fill="#fff" font-size="16" font-family="MyriadPro-Regular, Myriad Pro"><tspan x="0" y="0">W</tspan></text>
    <text id="B" transform="matrix(0.843, 0.538, -0.538, 0.843, 135.271, 21.809)" fill="#fff" font-size="15" font-family="MyriadPro-Regular, Myriad Pro"><tspan x="0" y="0">B</tspan></text>
    <text id="D" transform="translate(149.298 32.469) rotate(45.64)" fill="#fff" font-size="16" font-family="MyriadPro-Regular, Myriad Pro"><tspan x="0" y="0">D</tspan></text>
    <text id="E-4" data-name="E" transform="matrix(0.575, 0.818, -0.818, 0.575, 161.567, 42.438)" fill="#fff" font-size="13" font-family="MyriadPro-Regular, Myriad Pro"><tspan x="0" y="0">E</tspan></text>
    <text id="V" transform="matrix(0.451, 0.892, -0.892, 0.451, 167.53, 52.624)" fill="#fff" font-size="15" font-family="MyriadPro-Regular, Myriad Pro"><tspan x="0" y="0">V</tspan></text>
    <text id="E-5" data-name="E" transform="translate(174.266 64.12) rotate(71.928)" fill="#fff" font-size="13" font-family="MyriadPro-Regular, Myriad Pro"><tspan x="0" y="0">E</tspan></text>
    <text id="L-2" data-name="L" transform="matrix(0.177, 0.984, -0.984, 0.177, 177.833, 75.207)" fill="#fff" font-size="13" font-family="MyriadPro-Regular, Myriad Pro"><tspan x="0" y="0">L</tspan></text>
    <text id="O" transform="translate(177.882 85.469) rotate(88.46)" fill="#fff" font-size="16" font-family="MyriadPro-Regular, Myriad Pro"><tspan x="0" y="0">O</tspan></text>
    <text id="P" transform="matrix(-0.142, 0.99, -0.99, -0.142, 179.125, 101.561)" fill="#fff" font-size="15" font-family="MyriadPro-Regular, Myriad Pro"><tspan x="0" y="0">P</tspan></text>
    <text id="E-6" data-name="E" transform="translate(172.111 131.973) rotate(119.389)" fill="#fff" font-size="13" font-family="MyriadPro-Regular, Myriad Pro"><tspan x="0" y="0">E</tspan></text>
    <text id="N-2" data-name="N" transform="matrix(-0.622, 0.783, -0.783, -0.622, 164.863, 141.067)" fill="#fff" font-size="16" font-family="MyriadPro-Regular, Myriad Pro"><tspan x="0" y="0">N</tspan></text>
    <text id="T-2" data-name="T" transform="translate(156.592 154.348) rotate(137.842)" fill="#fff" font-size="13" font-family="MyriadPro-Regular, Myriad Pro"><tspan x="0" y="0">T</tspan></text>
    <text id="C-2" data-name="C" transform="translate(143.789 165.31) rotate(149.8)" fill="#fff" font-size="13" font-family="MyriadPro-Regular, Myriad Pro"><tspan x="0" y="0">C</tspan></text>
    <text id="O-2" data-name="O" transform="matrix(-0.938, 0.347, -0.347, -0.938, 131.593, 170.247)" fill="#fff" font-size="16" font-family="MyriadPro-Regular, Myriad Pro"><tspan x="0" y="0">O</tspan></text>
    <text id="N-3" data-name="N" transform="translate(116.537 175.739) rotate(170.64)" fill="#fff" font-size="16" font-family="MyriadPro-Regular, Myriad Pro"><tspan x="0" y="0">N</tspan></text>
    <text id="S" transform="matrix(-1, 0.016, -0.016, -1, 101.61, 179.972)" fill="#fff" font-size="13" font-family="MyriadPro-Regular, Myriad Pro"><tspan x="0" y="0">S</tspan></text>
    <text id="U" transform="translate(89.891 179.184) rotate(-171.09)" fill="#fff" font-size="14" font-family="MyriadPro-Regular, Myriad Pro"><tspan x="0" y="0">U</tspan></text>
    <text id="L-3" data-name="L" transform="translate(74.64 177.612) rotate(-162.01)" fill="#fff" font-size="13" font-family="MyriadPro-Regular, Myriad Pro"><tspan x="0" y="0">L</tspan></text>
    <text id="T-3" data-name="T" transform="matrix(-0.912, -0.411, 0.411, -0.912, 65.918, 174.9)" fill="#fff" font-size="13" font-family="MyriadPro-Regular, Myriad Pro"><tspan x="0" y="0">T</tspan></text>
    <text id="N-4" data-name="N" transform="translate(51.323 165.573) rotate(-142.44)" fill="#fff" font-size="16" font-family="MyriadPro-Regular, Myriad Pro"><tspan x="0" y="0">N</tspan></text>
    <text id="G-2" data-name="G" transform="translate(38.51 156.922) rotate(-132.158)" fill="#fff" font-size="14" font-family="MyriadPro-Regular, Myriad Pro"><tspan x="0" y="0">G</tspan></text>
    <text id="I-2" data-name="I" transform="matrix(-0.573, -0.82, 0.82, -0.573, 26.244, 147.306)" fill="#fff" font-size="10" font-family="MyriadPro-Regular, Myriad Pro"><tspan x="0" y="0">I</tspan></text>
    <text id="R" transform="translate(25.274 140.974) rotate(-118.69)" fill="#fff" font-size="15" font-family="MyriadPro-Regular, Myriad Pro"><tspan x="0" y="0">R</tspan></text>
    <text id="M" transform="translate(19.89 129.576) rotate(-108.072)" fill="#fff" font-size="16" font-family="MyriadPro-Regular, Myriad Pro"><tspan x="0" y="0">M</tspan></text>
    <text id="D-2" data-name="D" transform="translate(13.561 106.969) rotate(-92.862)" fill="#fff" font-size="16" font-family="MyriadPro-Regular, Myriad Pro"><tspan x="0" y="0">D</tspan></text>
    <text id="E-7" data-name="E" transform="translate(11.052 91.242) rotate(-83.34)" fill="#fff" font-size="13" font-family="MyriadPro-Regular, Myriad Pro"><tspan x="0" y="0">E</tspan></text>
  </g>
</svg>
