<svg xmlns="http://www.w3.org/2000/svg" width="103" height="103" viewBox="0 0 103 103">
  <g id="frame-icon" transform="translate(0 0)">
    <path id="Path_3422" data-name="Path 3422" d="M99.567,0H92.7a3.433,3.433,0,0,0-3.433,3.433V10.3a3.344,3.344,0,0,0,.129.877L76.023,24.55a5.076,5.076,0,0,0-2.206-.517H29.183a5.063,5.063,0,0,0-2.206.516L13.6,11.175a3.332,3.332,0,0,0,.129-.875V3.433A3.433,3.433,0,0,0,10.3,0H3.433A3.433,3.433,0,0,0,0,3.433V10.3a3.433,3.433,0,0,0,3.433,3.433H10.3a3.343,3.343,0,0,0,.877-.129L24.55,26.977a5.076,5.076,0,0,0-.517,2.206V73.817a5.063,5.063,0,0,0,.516,2.206L11.175,89.4a3.332,3.332,0,0,0-.875-.129H3.433A3.433,3.433,0,0,0,0,92.7v6.867A3.433,3.433,0,0,0,3.433,103H10.3a3.433,3.433,0,0,0,3.433-3.433V92.7a3.343,3.343,0,0,0-.129-.877L26.977,78.45a5.076,5.076,0,0,0,2.206.517H73.817a5.063,5.063,0,0,0,2.206-.516L89.4,91.825a3.332,3.332,0,0,0-.129.875v6.867A3.433,3.433,0,0,0,92.7,103h6.867A3.433,3.433,0,0,0,103,99.567V92.7a3.433,3.433,0,0,0-3.433-3.433H92.7a3.344,3.344,0,0,0-.877.129L78.45,76.023a5.076,5.076,0,0,0,.517-2.206V29.183a5.063,5.063,0,0,0-.516-2.206L91.825,13.6a3.331,3.331,0,0,0,.875.129h6.867A3.433,3.433,0,0,0,103,10.3V3.433A3.433,3.433,0,0,0,99.567,0ZM73.106,27.467,51.5,49.073,29.894,27.467ZM3.433,3.433H10.3V10.3H3.433Zm24.034,26.46L49.073,51.5,27.467,73.106ZM3.433,99.567V92.7H10.3v6.867Zm26.46-24.034L51.5,53.927,73.106,75.533ZM99.567,99.567H92.7V92.7h6.867ZM75.533,73.106,53.927,51.5,75.533,29.894ZM92.7,10.3V3.433h6.867V10.3Zm0,0" fill="#fff"/>
    <path id="Path_3423" data-name="Path 3423" d="M27.184,91.664a1.583,1.583,0,0,0,1.583-1.583V86.915a1.583,1.583,0,1,0-3.166,0v3.166A1.583,1.583,0,0,0,27.184,91.664Zm0,0" transform="translate(-20.852 -68.07)" fill="#fff"/>
    <path id="Path_3424" data-name="Path 3424" d="M25.6,141.284a1.583,1.583,0,1,0,3.166,0v-3.166a1.583,1.583,0,0,0-3.166,0Zm0,0" transform="translate(-20.852 -108.915)" fill="#fff"/>
    <path id="Path_3425" data-name="Path 3425" d="M25.6,192.483a1.583,1.583,0,1,0,3.166,0v-3.166a1.583,1.583,0,0,0-3.166,0Zm0,0" transform="translate(-20.852 -149.758)" fill="#fff"/>
    <path id="Path_3426" data-name="Path 3426" d="M25.6,243.683a1.583,1.583,0,0,0,3.166,0v-3.167a1.583,1.583,0,0,0-3.166,0Zm0,0" transform="translate(-20.852 -190.6)" fill="#fff"/>
    <path id="Path_3427" data-name="Path 3427" d="M25.6,294.882a1.583,1.583,0,0,0,3.166,0v-3.166a1.583,1.583,0,1,0-3.166,0Zm0,0" transform="translate(-20.852 -231.442)" fill="#fff"/>
    <path id="Path_3428" data-name="Path 3428" d="M25.6,346.082a1.583,1.583,0,0,0,3.166,0v-3.166a1.583,1.583,0,1,0-3.166,0Zm0,0" transform="translate(-20.852 -272.284)" fill="#fff"/>
    <path id="Path_3429" data-name="Path 3429" d="M25.6,397.284a1.583,1.583,0,1,0,3.166,0v-3.166a1.583,1.583,0,0,0-3.166,0Zm0,0" transform="translate(-20.852 -313.129)" fill="#fff"/>
    <path id="Path_3430" data-name="Path 3430" d="M90.082,28.768a1.583,1.583,0,0,0,0-3.166H86.915a1.583,1.583,0,1,0,0,3.166Zm0,0" transform="translate(-68.07 -20.852)" fill="#fff"/>
    <path id="Path_3431" data-name="Path 3431" d="M141.284,28.768a1.583,1.583,0,1,0,0-3.166h-3.166a1.583,1.583,0,0,0,0,3.166Zm0,0" transform="translate(-108.915 -20.852)" fill="#fff"/>
    <path id="Path_3432" data-name="Path 3432" d="M192.483,28.768a1.583,1.583,0,1,0,0-3.166h-3.166a1.583,1.583,0,0,0,0,3.166Zm0,0" transform="translate(-149.758 -20.852)" fill="#fff"/>
    <path id="Path_3433" data-name="Path 3433" d="M243.683,28.768a1.583,1.583,0,0,0,0-3.166h-3.167a1.583,1.583,0,0,0,0,3.166Zm0,0" transform="translate(-190.6 -20.852)" fill="#fff"/>
    <path id="Path_3434" data-name="Path 3434" d="M294.882,28.768a1.583,1.583,0,0,0,0-3.166h-3.166a1.583,1.583,0,1,0,0,3.166Zm0,0" transform="translate(-231.442 -20.852)" fill="#fff"/>
    <path id="Path_3435" data-name="Path 3435" d="M346.082,28.768a1.583,1.583,0,0,0,0-3.166h-3.166a1.583,1.583,0,1,0,0,3.166Zm0,0" transform="translate(-272.284 -20.852)" fill="#fff"/>
    <path id="Path_3436" data-name="Path 3436" d="M397.284,28.768a1.583,1.583,0,1,0,0-3.166h-3.166a1.583,1.583,0,0,0,0,3.166Zm0,0" transform="translate(-313.129 -20.852)" fill="#fff"/>
    <path id="Path_3437" data-name="Path 3437" d="M90.082,472.5a1.583,1.583,0,0,0,0-3.166H86.915a1.583,1.583,0,1,0,0,3.166Zm0,0" transform="translate(-68.07 -374.248)" fill="#fff"/>
    <path id="Path_3438" data-name="Path 3438" d="M141.284,472.5a1.583,1.583,0,1,0,0-3.166h-3.166a1.583,1.583,0,0,0,0,3.166Zm0,0" transform="translate(-108.915 -374.248)" fill="#fff"/>
    <path id="Path_3439" data-name="Path 3439" d="M192.483,472.5a1.583,1.583,0,1,0,0-3.166h-3.166a1.583,1.583,0,0,0,0,3.166Zm0,0" transform="translate(-149.758 -374.248)" fill="#fff"/>
    <path id="Path_3440" data-name="Path 3440" d="M240.516,472.5h3.167a1.583,1.583,0,0,0,0-3.166h-3.167a1.583,1.583,0,0,0,0,3.166Zm0,0" transform="translate(-190.6 -374.248)" fill="#fff"/>
    <path id="Path_3441" data-name="Path 3441" d="M291.716,472.5h3.166a1.583,1.583,0,0,0,0-3.166h-3.166a1.583,1.583,0,1,0,0,3.166Zm0,0" transform="translate(-231.442 -374.248)" fill="#fff"/>
    <path id="Path_3442" data-name="Path 3442" d="M346.082,472.5a1.583,1.583,0,0,0,0-3.166h-3.166a1.583,1.583,0,1,0,0,3.166Zm0,0" transform="translate(-272.284 -374.248)" fill="#fff"/>
    <path id="Path_3443" data-name="Path 3443" d="M397.284,472.5a1.583,1.583,0,1,0,0-3.166h-3.166a1.583,1.583,0,0,0,0,3.166Zm0,0" transform="translate(-313.129 -374.248)" fill="#fff"/>
    <path id="Path_3444" data-name="Path 3444" d="M472.5,86.915a1.583,1.583,0,1,0-3.166,0v3.166a1.583,1.583,0,0,0,3.166,0Zm0,0" transform="translate(-374.248 -68.07)" fill="#fff"/>
    <path id="Path_3445" data-name="Path 3445" d="M472.5,138.118a1.583,1.583,0,0,0-3.166,0v3.166a1.583,1.583,0,1,0,3.166,0Zm0,0" transform="translate(-374.248 -108.915)" fill="#fff"/>
    <path id="Path_3446" data-name="Path 3446" d="M472.5,189.317a1.583,1.583,0,0,0-3.166,0v3.166a1.583,1.583,0,1,0,3.166,0Zm0,0" transform="translate(-374.248 -149.758)" fill="#fff"/>
    <path id="Path_3447" data-name="Path 3447" d="M472.5,240.516a1.583,1.583,0,0,0-3.166,0v3.167a1.583,1.583,0,0,0,3.166,0Zm0,0" transform="translate(-374.248 -190.6)" fill="#fff"/>
    <path id="Path_3448" data-name="Path 3448" d="M472.5,291.716a1.583,1.583,0,1,0-3.166,0v3.166a1.583,1.583,0,0,0,3.166,0Zm0,0" transform="translate(-374.248 -231.442)" fill="#fff"/>
    <path id="Path_3449" data-name="Path 3449" d="M472.5,342.915a1.583,1.583,0,1,0-3.166,0v3.166a1.583,1.583,0,0,0,3.166,0Zm0,0" transform="translate(-374.248 -272.284)" fill="#fff"/>
    <path id="Path_3450" data-name="Path 3450" d="M470.915,392.535a1.583,1.583,0,0,0-1.583,1.583v3.166a1.583,1.583,0,1,0,3.166,0v-3.166A1.583,1.583,0,0,0,470.915,392.535Zm0,0" transform="translate(-374.248 -313.129)" fill="#fff"/>
  </g>
</svg>
