<svg id="internet-icon" xmlns="http://www.w3.org/2000/svg" width="103" height="103" viewBox="0 0 103 103">
  <path id="Path_3453" data-name="Path 3453" d="M51.5,103A51.5,51.5,0,1,0,0,51.5,51.5,51.5,0,0,0,51.5,103Zm0-96.562A45.063,45.063,0,1,1,6.438,51.5,45.114,45.114,0,0,1,51.5,6.438Z" fill="#fff"/>
  <path id="Path_3454" data-name="Path 3454" d="M82.036,205.112l3.737,14.025h4.017l4.558-18.759H90.536l-2.879,13.1-3.291-13.1h-4.5l-3.429,12.884L73.6,200.378H69.724L74.2,219.137h4.108Z" transform="translate(-55.068 -158.258)" fill="#fff"/>
  <path id="Path_3455" data-name="Path 3455" d="M196,219.137l3.725-14.025,3.737,14.025h4.017l4.558-18.759h-3.813l-2.879,13.1-3.291-13.1h-4.5l-3.429,12.884-2.829-12.884h-3.879l4.479,18.759Z" transform="translate(-148.015 -158.258)" fill="#fff"/>
  <path id="Path_3456" data-name="Path 3456" d="M313.681,219.137l3.725-14.025,3.737,14.025h4.017l4.558-18.759h-3.813l-2.879,13.1-3.291-13.1h-4.5L311.8,213.262l-2.829-12.884h-3.879l4.479,18.759Z" transform="translate(-240.962 -158.258)" fill="#fff"/>
</svg>
