<svg xmlns="http://www.w3.org/2000/svg" width="29.36" height="29.36" viewBox="0 0 29.36 29.36"><defs><style>.a{fill:#fff;}</style></defs><path class="a" d="M14.684,0h-.007A14.671,14.671,0,0,0,2.795,23.285L.965,28.738l5.643-1.8A14.678,14.678,0,1,0,14.684,0Zm8.542,20.73A4.142,4.142,0,0,1,20.345,22.8c-.767.163-1.769.294-5.142-1.1-4.314-1.787-7.092-6.171-7.309-6.456a8.384,8.384,0,0,1-1.743-4.428,4.687,4.687,0,0,1,1.5-3.573,2.133,2.133,0,0,1,1.5-.527c.182,0,.345.009.492.017.431.018.648.044.932.725.354.853,1.217,2.96,1.319,3.176a.874.874,0,0,1,.062.795,2.537,2.537,0,0,1-.475.673c-.217.25-.422.44-.639.708-.2.233-.422.483-.172.914a13.03,13.03,0,0,0,2.382,2.96A10.793,10.793,0,0,0,16.5,18.805a.928.928,0,0,0,1.035-.163,17.763,17.763,0,0,0,1.147-1.519.819.819,0,0,1,1.053-.319c.4.138,2.494,1.174,2.925,1.389s.716.319.82.5A3.656,3.656,0,0,1,23.226,20.73Z"/></svg>