<svg xmlns="http://www.w3.org/2000/svg" width="20.41" height="20.41" viewBox="0 0 20.41 20.41">
  <path id="attachment-sign" d="M11.308,7.026h4.145a2.589,2.589,0,0,0,2.589-2.589h0a2.589,2.589,0,0,0-2.589-2.589H11.308V.233h0a.23.23,0,0,1,.23-.23H15.58a4.426,4.426,0,0,1,0,8.852H11.538a.23.23,0,0,1-.23-.23ZM8.783,1.849H4.673A2.589,2.589,0,0,0,2.084,4.438h0A2.589,2.589,0,0,0,4.673,7.026H8.783v1.6a.23.23,0,0,1-.23.23H4.429A4.429,4.429,0,1,1,4.429,0H8.553a.23.23,0,0,1,.23.23ZM6.791,3.511h6.429a.23.23,0,0,1,.23.23V5.175a.23.23,0,0,1-.23.23H6.791a.23.23,0,0,1-.23-.23V3.74A.23.23,0,0,1,6.791,3.511Z" transform="translate(0 14.147) rotate(-45)" fill="#fff"/>
</svg>
