<svg id="Group_2" data-name="Group 2" xmlns="http://www.w3.org/2000/svg" width="23.374" height="22.79" viewBox="0 0 23.374 22.79">
  <path id="github" d="M7.818,26.351c0,.094-.108.17-.245.17-.156.014-.264-.061-.264-.17s.108-.17.245-.17S7.818,26.242,7.818,26.351Zm-1.466-.212c-.033.094.061.2.2.231a.221.221,0,0,0,.292-.094c.028-.094-.061-.2-.2-.245a.242.242,0,0,0-.292.108Zm2.083-.08c-.137.033-.231.123-.217.231s.137.156.278.123.231-.123.217-.217S8.572,26.044,8.435,26.058ZM11.536,8A11.3,11.3,0,0,0,0,19.5,11.815,11.815,0,0,0,7.988,30.771c.6.108.815-.264.815-.57s-.014-1.9-.014-2.893c0,0-3.3.707-3.992-1.4,0,0-.537-1.371-1.31-1.725,0,0-1.079-.74.075-.726a2.488,2.488,0,0,1,1.819,1.216,2.491,2.491,0,0,0,3.435.985,2.619,2.619,0,0,1,.754-1.588c-2.634-.292-5.292-.674-5.292-5.207a3.572,3.572,0,0,1,1.112-2.776,4.452,4.452,0,0,1,.123-3.2c.985-.306,3.252,1.272,3.252,1.272a11.133,11.133,0,0,1,5.919,0s2.267-1.583,3.252-1.272a4.45,4.45,0,0,1,.123,3.2,3.663,3.663,0,0,1,1.216,2.776c0,4.548-2.776,4.91-5.41,5.207a2.787,2.787,0,0,1,.8,2.187c0,1.588-.014,3.553-.014,3.94,0,.306.217.679.815.57A11.706,11.706,0,0,0,23.374,19.5,11.555,11.555,0,0,0,11.536,8ZM4.581,24.254c-.061.047-.047.156.033.245s.184.108.245.047.047-.156-.033-.245S4.642,24.192,4.581,24.254Zm-.509-.382c-.033.061.014.137.108.184a.14.14,0,0,0,.2-.033c.033-.061-.014-.137-.108-.184C4.18,23.811,4.1,23.825,4.072,23.872ZM5.6,25.55c-.075.061-.047.2.061.292.108.108.245.123.306.047S6,25.686,5.9,25.6C5.8,25.488,5.66,25.474,5.6,25.55Zm-.537-.693c-.075.047-.075.17,0,.278s.2.156.264.108a.215.215,0,0,0,0-.292C5.259,24.843,5.137,24.8,5.061,24.857Z" transform="translate(0 -8)" fill="#fff"/>
</svg>
